<?xml version="1.0" encoding="UTF-8"?>
<svg version="1.1" xmlns="http://www.w3.org/2000/svg" width="2051" height="2051">
<path d="M0 0 C3.97765482 0.00460854 7.9550021 -0.00222841 11.93261719 -0.02050781 C48.49558505 -0.18665768 84.90378851 1.41117144 121.24853516 5.56567383 C122.16604553 5.66794281 123.08355591 5.77021179 124.02886963 5.87557983 C190.01377687 13.26975491 255.82481452 26.77038257 318.92529297 47.55126953 C321.4091847 48.36853151 323.89521675 49.17907883 326.38134766 49.98950195 C362.4854413 61.79530512 397.7308435 75.4488361 432.24853516 91.31567383 C433.40869141 91.84306152 434.56884766 92.37044922 435.76416016 92.91381836 C463.93994639 105.72820826 491.50252632 119.72153915 518.24853516 135.31567383 C519.17166504 135.85144043 520.09479492 136.38720703 521.04589844 136.93920898 C558.12942635 158.49612786 593.92961027 182.35626905 627.91601562 208.5222168 C629.90899089 210.05460075 631.90673963 211.58020949 633.90869141 213.10083008 C641.88605773 219.18023564 649.67279091 225.47827239 657.43261719 231.83178711 C659.01153236 233.12200577 660.59632143 234.40502971 662.18212891 235.68676758 C673.00410623 244.45047878 683.5188964 253.57810777 693.68554688 263.09423828 C696.47171401 265.6989007 699.29712062 268.24517016 702.17431641 270.74926758 C714.58100138 281.56271629 726.22996668 293.19496329 737.87353516 304.81567383 C738.48394653 305.42349701 739.09435791 306.03132019 739.7232666 306.65756226 C751.73889386 318.63299199 751.73889386 318.63299199 756.84570312 324.69848633 C758.40185418 326.4924203 760.05333913 328.15324831 761.74853516 329.81567383 C764.7844844 332.8043972 767.59362174 335.93273862 770.37353516 339.15942383 C772.42212609 341.5153034 774.52056517 343.82074843 776.62353516 346.12817383 C780.49887258 350.42176015 784.17074825 354.84655385 787.80712891 359.34301758 C790.52573465 362.65319194 793.31948732 365.89052882 796.12353516 369.12817383 C801.58944357 375.46058643 806.78113166 381.97549446 811.90283203 388.58764648 C813.22105646 390.28038823 814.55227918 391.96185938 815.88916016 393.63989258 C823.60585295 403.33925813 830.94955606 413.29962972 838.24853516 423.31567383 C838.82990234 424.11150879 839.41126953 424.90734375 840.01025391 425.72729492 C846.18312454 434.1837809 852.30910592 442.65223463 858.01953125 451.4309082 C859.54293415 453.7671558 861.0778716 456.09570963 862.61181641 458.42504883 C881.15398362 486.64254447 898.40219123 515.49664174 914.24853516 545.31567383 C914.7403125 546.23606445 915.23208984 547.15645508 915.73876953 548.10473633 C957.25349371 625.92405908 988.1167451 709.52272127 1031.09821796 954.1929884 C1031.23558831 956.13284662 1031.37593991 958.07249313 1031.51660156 960.01211548 C1032.31896112 972.15441985 1032.42991483 984.26698897 1032.45166016 996.43286133 C1032.45448753 997.52201969 1032.45731491 998.61117805 1032.46022797 999.73334122 C1032.47513465 1005.52120443 1032.48441237 1011.30904336 1032.48876953 1017.09692383 C1032.49311259 1021.77962209 1032.50685326 1026.46213178 1032.52978516 1031.14477539 C1032.67455396 1061.33988372 1031.95466002 1091.23475213 1029.24853516 1121.31567383 C1029.09137024 1123.095849 1029.09137024 1123.095849 1028.93103027 1124.9119873 C1028.3778998 1131.03764085 1027.72956297 1137.14638595 1026.99853516 1143.25317383 C1026.84513168 1144.5683197 1026.84513168 1144.5683197 1026.68862915 1145.91003418 C1021.13715065 1193.28893247 1012.20067899 1240.14448262 1000.24853516 1286.31567383 C1000.06373596 1287.03271484 999.87893677 1287.74975586 999.6885376 1288.48852539 C985.99854472 1341.48321231 967.80922834 1393.44765973 945.24853516 1443.31567383 C944.74854004 1444.42845703 944.24854492 1445.54124023 943.73339844 1446.68774414 C930.99053111 1474.95493772 917.38209375 1503.00804716 901.72070312 1529.78149414 C900.22834643 1532.35042657 898.76756441 1534.93502734 897.31494141 1537.52661133 C876.64145825 1574.34791919 852.86217154 1609.7475271 827.14306641 1643.22583008 C824.19691888 1647.06352751 821.29446992 1650.93018154 818.41577148 1654.81860352 C813.44600529 1661.52586098 808.27347012 1667.98275572 802.82666016 1674.30786133 C800.44260097 1677.08926372 798.11753619 1679.90738299 795.81103516 1682.75317383 C787.80795729 1692.56800017 779.53769963 1702.12547205 770.91650391 1711.40161133 C768.91214695 1713.59085041 766.95058272 1715.79800589 765.00585938 1718.0390625 C753.93618792 1730.70469113 742.08121215 1742.64554877 730.17553711 1754.51904297 C727.78527409 1756.90387638 725.40049758 1759.29410488 723.01611328 1761.68481445 C721.47021034 1763.23005755 719.92399773 1764.77499092 718.37744141 1766.31958008 C717.67833145 1767.02071426 716.9792215 1767.72184845 716.25892639 1768.44422913 C712.32115133 1772.36352571 708.28785874 1776.11177873 704.07171631 1779.73060608 C700.93780412 1782.45521911 697.94946554 1785.33443103 694.93603516 1788.19067383 C689.71252014 1793.10734391 684.39624325 1797.76263087 678.79150391 1802.24145508 C676.19842169 1804.35654979 673.72068615 1806.56085479 671.24853516 1808.81567383 C666.07306541 1813.51990771 660.69709625 1817.9328287 655.24853516 1822.31567383 C654.13896732 1823.21778045 653.02960075 1824.12013466 651.92041016 1825.02270508 C642.34417246 1832.78262331 632.51394677 1840.18162772 622.62646484 1847.53881836 C620.48404757 1849.13969237 618.35188145 1850.75271523 616.22509766 1852.37426758 C598.49141281 1865.87297472 580.02820478 1878.32669599 561.24853516 1890.31567383 C560.08209473 1891.06494141 560.08209473 1891.06494141 558.89208984 1891.8293457 C529.60904026 1910.6340765 499.24897946 1927.52410261 468.24853516 1943.31567383 C467.17490723 1943.86610352 466.1012793 1944.4165332 464.99511719 1944.98364258 C384.35022348 1986.28089087 297.36772652 2014.74020096 109.49853516 2047.56567383 C108.37115936 2047.68137222 108.37115936 2047.68137222 107.2210083 2047.79940796 C102.49987539 2048.27751303 97.77610128 2048.70136701 93.04650879 2049.08682251 C91.10100462 2049.24594881 89.15595828 2049.41073254 87.21130371 2049.57992554 C63.10631835 2051.63138965 39.01523085 2051.65795829 14.83837891 2051.63134766 C10.29986614 2051.62673419 5.76162254 2051.63358753 1.22314453 2051.65185547 C-28.56814713 2051.77052991 -58.07237693 2050.96923807 -87.75146484 2048.31567383 C-89.53109619 2048.15864487 -89.53109619 2048.15864487 -91.34667969 2047.9984436 C-97.45188046 2047.4454114 -103.54011204 2046.7958846 -109.62646484 2046.06567383 C-110.50161743 2045.96340485 -111.37677002 2045.86113586 -112.27844238 2045.75576782 C-203.64623153 2035.03865722 -292.8483115 2012.26472445 -414.75146484 1962.31567383 C-417.04550671 1961.26959865 -419.33978364 1960.22403881 -421.63427734 1959.17895508 C-445.32201007 1948.33905685 -468.5373995 1936.8218028 -491.11230469 1923.81665039 C-494.42832091 1921.93072368 -497.78146342 1920.11952561 -501.14013672 1918.31103516 C-558.41465689 1887.4065625 -612.18232136 1847.72706392 -661.36865234 1805.22973633 C-663.61112465 1803.29229196 -665.86613996 1801.37143839 -668.13427734 1799.46411133 C-676.09175298 1792.7529051 -683.71544953 1785.74194554 -691.25537109 1778.56567383 C-694.22148362 1775.74361395 -697.22315855 1772.96461353 -700.24543762 1770.20281982 C-707.44909581 1763.60901896 -714.41766636 1756.80408129 -721.31054688 1749.88696289 C-723.1425748 1748.04951623 -724.9799709 1746.21755733 -726.81787109 1744.38598633 C-732.16672949 1739.03983202 -737.4846244 1733.71586933 -742.35742188 1727.92407227 C-743.91012941 1726.13261215 -745.55922859 1724.47522055 -747.25146484 1722.81567383 C-750.26560067 1719.8483206 -753.05063817 1716.7422209 -755.81005859 1713.53833008 C-758.03950546 1710.985905 -760.33147866 1708.49679869 -762.62646484 1706.00317383 C-766.6968654 1701.5404455 -770.55323394 1696.95309383 -774.34521484 1692.25317383 C-777.04926374 1688.95212713 -779.83290961 1685.72832265 -782.62646484 1682.50317383 C-788.03894491 1676.22876315 -793.19430025 1669.78641516 -798.26367188 1663.2331543 C-799.85458329 1661.18277388 -801.45646485 1659.14130477 -803.06005859 1657.10083008 C-822.94304016 1631.75730558 -841.40783909 1605.45865314 -858.75146484 1578.31567383 C-859.36876465 1577.35048828 -859.98606445 1576.38530273 -860.62207031 1575.39086914 C-875.35452584 1552.27767544 -888.9057797 1528.52325638 -901.75146484 1504.31567383 C-902.32300293 1503.24639648 -902.89454102 1502.17711914 -903.48339844 1501.07543945 C-927.39421348 1456.23200142 -947.29332942 1409.38057862 -963.75146484 1361.31567383 C-964.03570313 1360.48594055 -964.31994141 1359.65620728 -964.61279297 1358.80133057 C-973.79172564 1331.9278936 -981.83171413 1304.85649646 -988.75146484 1277.31567383 C-988.93839905 1276.57440247 -989.12533325 1275.8331311 -989.31793213 1275.06939697 C-1000.43937663 1230.86910109 -1008.36704684 1185.97604232 -1013.43896484 1140.69067383 C-1013.58427139 1139.42666245 -1013.58427139 1139.42666245 -1013.73251343 1138.13711548 C-1017.75294256 1102.74997806 -1019.26838191 1067.2542581 -1019.14257812 1031.65893555 C-1019.12548803 1026.78978381 -1019.13569081 1021.92112463 -1019.15289974 1017.05198956 C-1019.25827644 981.7718608 -1017.59860988 946.55391317 -1013.43896484 911.50317383 C-1013.28214737 910.14535294 -1013.28214737 910.14535294 -1013.12216187 908.76010132 C-1002.68426543 818.51427529 -981.08942939 729.2479306 -931.75146484 609.31567383 C-931.0829248 607.80287842 -931.0829248 607.80287842 -930.40087891 606.25952148 C-917.49293194 577.25220643 -903.43444128 548.40237859 -887.33349609 521.02661133 C-885.58090094 518.0233989 -883.86761238 514.99964049 -882.15771484 511.97192383 C-874.91711963 499.19573127 -867.30554349 486.76813431 -859.18896484 474.53051758 C-856.17949612 469.99233795 -853.2878649 465.39323374 -850.43896484 460.75317383 C-846.27228399 454.00643116 -841.75393066 447.57438636 -837.08740234 441.16674805 C-835.15998394 438.49611824 -833.27548467 435.79603595 -831.38720703 433.09765625 C-825.03169602 424.02349016 -818.45784058 415.13283983 -811.75146484 406.31567383 C-811.32655762 405.75428711 -810.90165039 405.19290039 -810.46386719 404.61450195 C-803.91331506 395.96351515 -797.11305828 387.53112676 -790.23974609 379.13598633 C-788.93737106 377.54305518 -787.64080452 375.94537863 -786.34521484 374.34692383 C-778.08665238 364.17333239 -769.55802521 354.23345998 -760.75146484 344.53051758 C-758.95542955 342.54154881 -757.19193181 340.53004188 -755.43896484 338.50317383 C-748.46018536 330.501922 -741.24668124 322.70428985 -733.66992188 315.26660156 C-731.87608162 313.44239979 -730.20781254 311.56648854 -728.54833984 309.62036133 C-724.653689 305.14107387 -720.52111921 300.93760729 -716.31396484 296.75317383 C-715.60175781 296.03709961 -714.88955078 295.32102539 -714.15576172 294.58325195 C-710.08230886 290.51719865 -705.9031464 286.64745143 -701.54418945 282.89013672 C-699.16831545 280.80352205 -696.95679608 278.58060862 -694.75146484 276.31567383 C-691.26105044 272.78812736 -687.70502171 269.44182909 -683.93505859 266.21801758 C-681.7436512 264.30886659 -679.60834757 262.34576066 -677.47827148 260.36865234 C-672.37088792 255.6306529 -667.1506074 251.1224552 -661.72021484 246.75317383 C-658.2286384 243.8864058 -654.83636938 240.91774065 -651.43896484 237.94067383 C-645.00913475 232.329171 -638.40963176 226.99807494 -631.65283203 221.78735352 C-629.60793993 220.20458393 -627.57362164 218.60887858 -625.54052734 217.01098633 C-583.35007936 183.90556365 -538.52217515 154.5228873 -491.75146484 128.31567383 C-490.8982666 127.83614258 -490.04506836 127.35661133 -489.16601562 126.86254883 C-415.13977629 85.46016427 -335.64887931 54.03351622 -92.56396484 4.06567383 C-91.79832214 3.98845093 -91.03267944 3.91122803 -90.24383545 3.83166504 C-84.41845668 3.25239444 -78.58812416 2.76616795 -72.75146484 2.31567383 C-71.64700012 2.22847076 -70.5425354 2.1412677 -69.40460205 2.05142212 C-46.27158578 0.28072228 -23.1937529 -0.02907224 0 0 Z " fill="#1675BC" transform="translate(1018.75146484375,-0.315673828125)"/>
<path d="M0 0 C1.15218018 0.34611328 1.15218018 0.34611328 2.32763672 0.69921875 C24.8907569 7.4991864 45.52047096 18.8265039 62.76953125 34.921875 C64.81782622 36.83026891 66.92035597 38.63624726 69.0625 40.4375 C103.2192327 70.43542892 120.62402688 116.69736591 132.25537109 159.29248047 C133.04664552 162.16960616 133.85903998 165.04015999 134.67578125 167.91015625 C141.67067741 192.53094096 147.90603277 217.24150999 153.2109375 242.27636719 C153.92725282 245.65670175 154.65048499 249.03547854 155.375 252.4140625 C162.34074855 285.12128459 167.39868866 317.7927986 170.6875 351.0625 C170.79618408 352.15401367 170.90486816 353.24552734 171.0168457 354.37011719 C173.43099266 378.7869647 174.16343947 402.89843806 174.13037109 427.42089844 C174.12471112 431.62807948 174.12804103 435.83519677 174.13380432 440.04237556 C174.16385398 465.78484057 173.68845776 491.44441236 171.75 517.125 C171.68852783 517.95565979 171.62705566 518.78631958 171.5637207 519.64215088 C170.43730377 534.74172038 169.01828794 549.81026074 167.5 564.875 C167.39844604 565.89563538 167.29689209 566.91627075 167.19226074 567.96783447 C165.4602974 585.25777513 163.718644 602.58552195 158.8125 619.3125 C158.51206787 620.35591553 158.21163574 621.39933105 157.90209961 622.47436523 C153.04987294 638.98342046 147.27486531 654.89048795 139 670 C138.13761719 671.59714844 138.13761719 671.59714844 137.2578125 673.2265625 C127.60822832 690.43572877 114.55413016 704.98691481 99 717 C98.42498434 717.44612727 97.84996868 717.89225454 97.25752831 718.35190082 C86.23928275 726.65592405 77.51238574 728.4297678 63.92578125 728.13525391 C62.0712296 728.13242561 60.21666679 728.13403122 58.36212158 728.13967896 C53.37874866 728.14252189 48.39783426 728.08416963 43.41502762 728.01393938 C38.18884349 727.95097831 32.96258887 727.94551718 27.73608398 727.9336853 C17.86210766 727.90273409 7.98925245 727.82085222 -1.88423252 727.72019041 C-13.13453269 727.60800741 -24.38488938 727.55333185 -35.63561058 727.50323606 C-58.75769273 727.39900554 -81.87878326 727.22337063 -105 727 C-105.01030746 726.14222458 -105.02061493 725.28444916 -105.03123474 724.40068054 C-105.12915653 716.3223837 -105.23166345 708.24416092 -105.33933926 700.16598797 C-105.39453599 696.0127852 -105.44795082 691.85957535 -105.49731445 687.70629883 C-105.54500591 683.6992001 -105.59735049 679.69218686 -105.65294075 675.6851902 C-105.67334263 674.1553847 -105.69205929 672.62555577 -105.70907402 671.09570885 C-105.73316605 668.95523988 -105.76321392 666.81493207 -105.79467773 664.67456055 C-105.81022202 663.45544479 -105.8257663 662.23632904 -105.84178162 660.98027039 C-105.87064557 657.94558057 -105.87064557 657.94558057 -107 655 C-108.94729006 642.22259936 -109.12730624 629.12959956 -109.38528442 616.22901917 C-109.40427921 615.28096846 -109.423274 614.33291775 -109.44284439 613.35613823 C-109.49721342 610.57979596 -109.54918058 607.80341786 -109.60079956 605.02702332 C-109.85679803 591.66475191 -110.27399717 578.31695012 -110.8515625 564.96484375 C-110.89407261 563.97045666 -110.93658272 562.97606956 -110.98038101 561.95154953 C-111.92769857 539.98811053 -113.24732872 518.05260065 -114.68008804 496.11614609 C-114.87881681 493.06642666 -115.07557182 490.01658531 -115.27182007 486.96670532 C-118.31803366 437.41486702 -118.31803366 437.41486702 -123 388 C-123.66644531 388.61746094 -124.33289062 389.23492188 -125.01953125 389.87109375 C-130.53103052 394.93550637 -136.1149787 399.8362045 -141.9453125 404.53515625 C-144.1831158 406.34085175 -146.40481899 408.15979312 -148.6171875 409.99609375 C-177.90128276 434.21760241 -210.13947915 453.88452071 -244 471 C-244.7336377 471.3722168 -245.46727539 471.74443359 -246.22314453 472.12792969 C-268.48947759 483.31731081 -292.26686813 491.54745835 -316 499 C-316.9286084 499.29245605 -317.8572168 499.58491211 -318.81396484 499.88623047 C-333.01462859 504.29907178 -347.39019266 507.28991052 -362 510 C-363.16080078 510.22075195 -364.32160156 510.44150391 -365.51757812 510.66894531 C-383.61602826 514.10853657 -401.53046882 517.23802182 -420 517 C-419.175 516.030625 -418.35 515.06125 -417.5 514.0625 C-416.95085937 513.4128125 -416.40171875 512.763125 -415.8359375 512.09375 C-414.63332095 510.72225538 -413.38873376 509.38621826 -412.1015625 508.09375 C-396.86272375 492.4332833 -393.47006195 472.27615166 -393.7265625 451.30078125 C-394.35086413 430.47321341 -405.30958533 414.02097806 -420 400 C-421.33333333 398.66666667 -422.66666667 397.33333333 -424 396 C-421.6371271 394.81856355 -419.50377752 394.69794823 -416.89990234 394.45605469 C-353.50276022 388.55148749 -291.98918375 365.19508012 -241 327 C-240.45972168 326.59716797 -239.91944336 326.19433594 -239.36279297 325.77929688 C-227.17431215 316.66411892 -215.69451616 306.79582371 -204.55322266 296.43554688 C-202.91358916 294.92013585 -201.26095577 293.41994273 -199.60546875 291.921875 C-194.28597866 287.09271629 -189.14866394 282.30403922 -184.53125 276.78125 C-182.97906979 274.97565261 -181.33902322 273.3391951 -179.625 271.6875 C-175.91382598 268.03405535 -172.69296605 264.04853954 -169.43359375 259.9921875 C-167.38412921 257.47230012 -165.28674013 255.00733965 -163.15673828 252.55566406 C-158.00060713 246.58856132 -153.12923731 240.41624855 -148.375 234.125 C-147.75858643 233.32835937 -147.14217285 232.53171875 -146.50708008 231.7109375 C-141.88880044 225.50900614 -140.55765791 221.00127219 -141.48828125 213.2578125 C-141.75266394 211.54524403 -142.02762027 209.83427836 -142.3125 208.125 C-142.44333984 207.27808594 -142.57417969 206.43117188 -142.70898438 205.55859375 C-143.47750882 200.70983566 -144.42070158 195.92840018 -145.51586914 191.14355469 C-146.27195292 187.79589178 -146.91922007 184.43382571 -147.5625 181.0625 C-147.81128906 179.77472656 -148.06007813 178.48695313 -148.31640625 177.16015625 C-150.08094098 166.93903393 -150.24184465 156.7199907 -150.25 146.375 C-150.25067474 145.60332489 -150.25134949 144.83164978 -150.25204468 144.03659058 C-150.18826745 97.88392828 -137.11058917 52.16830826 -103.89453125 18.890625 C-77.60760982 -5.81620825 -33.5950874 -10.94786931 0 0 Z " fill="#FEFEFE" transform="translate(1476,748)"/>
<path d="M0 0 C2.02927162 0.00316731 4.05708751 -0.02045272 6.08618164 -0.0456543 C32.33630049 -0.17299361 54.70579529 9.37298633 73.59594727 27.44067383 C101.2647121 55.73383956 115.20934011 99.47648747 115.26391602 138.56567383 C115.26724442 139.42265869 115.27057281 140.27964355 115.27400208 141.16259766 C115.27903283 142.96768666 115.2814116 144.77278485 115.28125 146.57788086 C115.28341944 149.28100752 115.30156967 151.98371375 115.32055664 154.68676758 C115.36729831 168.81601403 114.49835487 182.55453253 111.09594727 196.31567383 C110.38271133 199.68549434 109.70945415 203.06320976 109.03344727 206.44067383 C108.86006836 207.29532227 108.68668945 208.1499707 108.50805664 209.03051758 C107.5558611 213.78055051 106.72728984 218.5122633 106.09594727 223.31567383 C101.91488666 219.69143671 99.5298843 215.25822108 96.84594727 210.50317383 C96.3606958 209.64933105 95.87544434 208.79548828 95.37548828 207.91577148 C94.39540723 206.18473184 93.41887928 204.45167533 92.44604492 202.71655273 C91.29600088 200.67142921 90.12767517 198.63872019 88.95141602 196.60864258 C82.4586225 185.03798204 77.75029145 172.71813216 73.09594727 160.31567383 C72.75112305 159.39947266 72.40629883 158.48327148 72.05102539 157.53930664 C68.25158611 147.27623372 65.53283716 137.13950172 63.53344727 126.37817383 C59.728569 106.07373681 50.90113049 88.941443 34.09594727 76.31567383 C15.19159971 63.82074973 -5.71562739 59.1792213 -28.01342773 63.56567383 C-46.33604443 68.31965005 -62.95638776 78.69639595 -73.38061523 94.71411133 C-88.49974069 120.53292556 -87.03795687 146.92758105 -79.83374023 175.14379883 C-77.69428192 183.22431959 -75.40323744 191.21952865 -72.66333008 199.11743164 C-71.8738228 201.40319484 -71.11629119 203.698056 -70.36108398 205.99536133 C-63.78422011 225.70211654 -55.63807092 244.96009668 -45.90405273 263.31567383 C-45.22052734 264.6247168 -45.22052734 264.6247168 -44.52319336 265.96020508 C-34.38879672 285.3374861 -23.20959097 304.02172129 -10.17553711 321.59985352 C-8.78965959 323.47004307 -7.41758496 325.35000821 -6.04467773 327.22973633 C0.61111716 336.28222552 7.64456315 344.90816229 15.09594727 353.31567383 C15.87711914 354.19739258 16.65829102 355.07911133 17.46313477 355.98754883 C19.66048458 358.4429504 21.87565615 360.88100977 24.09594727 363.31567383 C24.94672852 364.25926758 25.79750977 365.20286133 26.67407227 366.17504883 C35.04021445 375.42366364 43.61630863 384.53611434 53.12719727 392.62426758 C55.37376233 394.55435225 57.54178631 396.55985522 59.72094727 398.56567383 C65.33930196 403.64480562 71.28483409 408.27120594 77.28833008 412.88110352 C77.88484375 413.35451172 78.48135742 413.82791992 79.09594727 414.31567383 C80.15354248 415.01265381 81.2111377 415.70963379 82.30078125 416.42773438 C85.12595602 418.82057354 85.08722602 419.23902464 85.54443359 423.25732422 C85.43332706 424.87433276 85.28740125 426.48915274 85.11547852 428.10083008 C85.0454512 429.01042984 84.97542389 429.9200296 84.90327454 430.85719299 C84.74437758 432.89819429 84.57198325 434.93817476 84.38848877 436.97711182 C83.96991873 441.75394524 83.65113406 446.53649028 83.32180786 451.32017517 C83.03638075 455.46458022 82.73499081 459.60776117 82.43286133 463.75097656 C80.21418372 494.3209745 78.39220209 524.89703895 76.97317886 555.51475906 C76.84862967 558.1954402 76.72227149 560.87603085 76.59555054 563.55661011 C75.85824056 579.22905368 75.16164994 594.89852733 74.83618164 610.58569336 C74.81635349 611.52357099 74.79652534 612.46144861 74.77609634 613.42774677 C74.6833704 617.91502404 74.6014064 622.40209012 74.5380249 626.88987732 C74.5083371 628.5312427 74.47849814 630.17260536 74.44848633 631.81396484 C74.44250175 632.50927622 74.43651718 633.20458759 74.43035126 633.92096901 C74.33812543 638.49190019 73.9217697 642.97505922 73.3767755 647.51018995 C72.19928271 657.30949626 71.75750101 666.95981708 71.68188477 676.82348633 C71.66309926 678.41202719 71.64352091 680.00055885 71.62319946 681.58908081 C71.57264949 685.70203125 71.53261997 689.8150138 71.49505615 693.92810059 C71.45452256 698.15241926 71.40365992 702.37661351 71.35375977 706.60083008 C71.25791852 714.83902519 71.1732312 723.07728378 71.09594727 731.31567383 C46.69539413 731.52628639 22.29497802 731.68480466 -2.10630226 731.78198338 C-13.43730757 731.82831265 -24.7677468 731.89143121 -36.09838867 731.99462891 C-45.97879156 732.08457485 -55.85878433 732.14245465 -65.73958528 732.16247028 C-70.96750779 732.17416345 -76.19425744 732.20147571 -81.42180252 732.26724434 C-86.35185842 732.32876218 -91.28026909 732.34709326 -96.21067238 732.33364296 C-98.01094726 732.33610008 -99.81128252 732.35375 -101.61122322 732.3885231 C-114.33397296 732.62206349 -121.9415458 730.27183499 -131.90405273 722.31567383 C-132.84780573 721.59986932 -133.79155872 720.88406481 -134.76391029 720.14656925 C-137.21070585 718.27227644 -139.56105011 716.31787607 -141.90405273 714.31567383 C-143.1512207 713.26959961 -143.1512207 713.26959961 -144.42358398 712.20239258 C-167.47893055 692.26359055 -180.70606025 663.75923024 -189.90405273 635.31567383 C-190.40146973 633.78765137 -190.40146973 633.78765137 -190.90893555 632.22875977 C-204.49629676 589.63682045 -205.64759262 541.74228317 -207.90405273 497.31567383 C-207.94568542 496.55433136 -207.98731812 495.79298889 -208.0302124 495.00857544 C-208.91956885 478.54597355 -209.05915199 462.11170911 -209.03100586 445.62762451 C-209.02777092 442.31595271 -209.03546465 439.00429442 -209.04077148 435.69262695 C-209.04784969 412.7736762 -208.65977142 389.84498608 -206.65405273 367.00317383 C-206.59058655 366.26697815 -206.52712036 365.53078247 -206.46173096 364.77227783 C-202.58457113 320.2676447 -195.48190217 275.95678626 -184.70385742 232.59350586 C-183.60811214 228.10282328 -182.60169632 223.59360257 -181.59057617 219.08325195 C-179.21373656 208.51607716 -176.52300797 198.10349069 -173.46655273 187.71411133 C-172.01228701 182.75152181 -170.67247713 177.76242538 -169.34765625 172.76391602 C-163.76410223 151.70452636 -157.67637964 131.290221 -148.90405273 111.31567383 C-148.54585449 110.49083496 -148.18765625 109.66599609 -147.81860352 108.81616211 C-137.85456519 86.08356208 -124.0243501 66.21609071 -106.90405273 48.31567383 C-106.0184668 47.37723633 -105.13288086 46.43879883 -104.22045898 45.47192383 C-85.95110836 26.59271099 -62.59200449 12.47005879 -37.46655273 4.81567383 C-36.71164551 4.58468994 -35.95673828 4.35370605 -35.17895508 4.11572266 C-23.65878107 0.84989822 -11.92722237 -0.03871078 0 0 Z " fill="#FEFEFE" transform="translate(609.904052734375,743.684326171875)"/>
<path d="M0 0 C3.97765482 0.00460854 7.9550021 -0.00222841 11.93261719 -0.02050781 C48.49558505 -0.18665768 84.90378851 1.41117144 121.24853516 5.56567383 C122.16604553 5.66794281 123.08355591 5.77021179 124.02886963 5.87557983 C190.01377687 13.26975491 255.82481452 26.77038257 318.92529297 47.55126953 C321.4091847 48.36853151 323.89521675 49.17907883 326.38134766 49.98950195 C362.4854413 61.79530512 397.7308435 75.4488361 432.24853516 91.31567383 C433.40869141 91.84306152 434.56884766 92.37044922 435.76416016 92.91381836 C463.93994639 105.72820826 491.50252632 119.72153915 518.24853516 135.31567383 C519.17166504 135.85144043 520.09479492 136.38720703 521.04589844 136.93920898 C558.12942635 158.49612786 593.92961027 182.35626905 627.91601562 208.5222168 C629.90899089 210.05460075 631.90673963 211.58020949 633.90869141 213.10083008 C641.88605773 219.18023564 649.67279091 225.47827239 657.43261719 231.83178711 C659.01153236 233.12200577 660.59632143 234.40502971 662.18212891 235.68676758 C673.00410623 244.45047878 683.5188964 253.57810777 693.68554688 263.09423828 C696.47171401 265.6989007 699.29712062 268.24517016 702.17431641 270.74926758 C714.58100138 281.56271629 726.22996668 293.19496329 737.87353516 304.81567383 C738.48394653 305.42349701 739.09435791 306.03132019 739.7232666 306.65756226 C751.73889386 318.63299199 751.73889386 318.63299199 756.84570312 324.69848633 C758.40185418 326.4924203 760.05333913 328.15324831 761.74853516 329.81567383 C764.7844844 332.8043972 767.59362174 335.93273862 770.37353516 339.15942383 C772.42212609 341.5153034 774.52056517 343.82074843 776.62353516 346.12817383 C780.49887258 350.42176015 784.17074825 354.84655385 787.80712891 359.34301758 C790.52573465 362.65319194 793.31948732 365.89052882 796.12353516 369.12817383 C801.58944357 375.46058643 806.78113166 381.97549446 811.90283203 388.58764648 C813.22105646 390.28038823 814.55227918 391.96185938 815.88916016 393.63989258 C823.60585295 403.33925813 830.94955606 413.29962972 838.24853516 423.31567383 C838.82990234 424.11150879 839.41126953 424.90734375 840.01025391 425.72729492 C846.18312454 434.1837809 852.30910592 442.65223463 858.01953125 451.4309082 C859.54293415 453.7671558 861.0778716 456.09570963 862.61181641 458.42504883 C881.15398362 486.64254447 898.40219123 515.49664174 914.24853516 545.31567383 C914.7403125 546.23606445 915.23208984 547.15645508 915.73876953 548.10473633 C957.25349371 625.92405908 988.1167451 709.52272127 1031.09821796 954.1929884 C1031.23558831 956.13284662 1031.37593991 958.07249313 1031.51660156 960.01211548 C1032.31896112 972.15441985 1032.42991483 984.26698897 1032.45166016 996.43286133 C1032.45448753 997.52201969 1032.45731491 998.61117805 1032.46022797 999.73334122 C1032.47513465 1005.52120443 1032.48441237 1011.30904336 1032.48876953 1017.09692383 C1032.49311259 1021.77962209 1032.50685326 1026.46213178 1032.52978516 1031.14477539 C1032.67455396 1061.33988372 1031.95466002 1091.23475213 1029.24853516 1121.31567383 C1029.09137024 1123.095849 1029.09137024 1123.095849 1028.93103027 1124.9119873 C1028.3778998 1131.03764085 1027.72956297 1137.14638595 1026.99853516 1143.25317383 C1026.84513168 1144.5683197 1026.84513168 1144.5683197 1026.68862915 1145.91003418 C1021.13715065 1193.28893247 1012.20067899 1240.14448262 1000.24853516 1286.31567383 C1000.06373596 1287.03271484 999.87893677 1287.74975586 999.6885376 1288.48852539 C985.99854472 1341.48321231 967.80922834 1393.44765973 945.24853516 1443.31567383 C944.74854004 1444.42845703 944.24854492 1445.54124023 943.73339844 1446.68774414 C930.99053111 1474.95493772 917.38209375 1503.00804716 901.72070312 1529.78149414 C900.22834643 1532.35042657 898.76756441 1534.93502734 897.31494141 1537.52661133 C876.64145825 1574.34791919 852.86217154 1609.7475271 827.14306641 1643.22583008 C824.19691888 1647.06352751 821.29446992 1650.93018154 818.41577148 1654.81860352 C813.44600529 1661.52586098 808.27347012 1667.98275572 802.82666016 1674.30786133 C800.44260097 1677.08926372 798.11753619 1679.90738299 795.81103516 1682.75317383 C787.80795729 1692.56800017 779.53769963 1702.12547205 770.91650391 1711.40161133 C768.91214695 1713.59085041 766.95058272 1715.79800589 765.00585938 1718.0390625 C753.93618792 1730.70469113 742.08121215 1742.64554877 730.17553711 1754.51904297 C727.78527409 1756.90387638 725.40049758 1759.29410488 723.01611328 1761.68481445 C721.47021034 1763.23005755 719.92399773 1764.77499092 718.37744141 1766.31958008 C717.67833145 1767.02071426 716.9792215 1767.72184845 716.25892639 1768.44422913 C712.32115133 1772.36352571 708.28785874 1776.11177873 704.07171631 1779.73060608 C700.93780412 1782.45521911 697.94946554 1785.33443103 694.93603516 1788.19067383 C689.71252014 1793.10734391 684.39624325 1797.76263087 678.79150391 1802.24145508 C676.19842169 1804.35654979 673.72068615 1806.56085479 671.24853516 1808.81567383 C666.07306541 1813.51990771 660.69709625 1817.9328287 655.24853516 1822.31567383 C654.13896732 1823.21778045 653.02960075 1824.12013466 651.92041016 1825.02270508 C642.34417246 1832.78262331 632.51394677 1840.18162772 622.62646484 1847.53881836 C620.48404757 1849.13969237 618.35188145 1850.75271523 616.22509766 1852.37426758 C598.49141281 1865.87297472 580.02820478 1878.32669599 561.24853516 1890.31567383 C560.08209473 1891.06494141 560.08209473 1891.06494141 558.89208984 1891.8293457 C529.60904026 1910.6340765 499.24897946 1927.52410261 468.24853516 1943.31567383 C467.17490723 1943.86610352 466.1012793 1944.4165332 464.99511719 1944.98364258 C384.35022348 1986.28089087 297.36772652 2014.74020096 109.49853516 2047.56567383 C108.37115936 2047.68137222 108.37115936 2047.68137222 107.2210083 2047.79940796 C102.49987539 2048.27751303 97.77610128 2048.70136701 93.04650879 2049.08682251 C91.10100462 2049.24594881 89.15595828 2049.41073254 87.21130371 2049.57992554 C63.10631835 2051.63138965 39.01523085 2051.65795829 14.83837891 2051.63134766 C10.29986614 2051.62673419 5.76162254 2051.63358753 1.22314453 2051.65185547 C-28.56814713 2051.77052991 -58.07237693 2050.96923807 -87.75146484 2048.31567383 C-89.53109619 2048.15864487 -89.53109619 2048.15864487 -91.34667969 2047.9984436 C-97.45188046 2047.4454114 -103.54011204 2046.7958846 -109.62646484 2046.06567383 C-110.50161743 2045.96340485 -111.37677002 2045.86113586 -112.27844238 2045.75576782 C-203.64623153 2035.03865722 -292.8483115 2012.26472445 -414.75146484 1962.31567383 C-417.04550671 1961.26959865 -419.33978364 1960.22403881 -421.63427734 1959.17895508 C-445.32201007 1948.33905685 -468.5373995 1936.8218028 -491.11230469 1923.81665039 C-494.42832091 1921.93072368 -497.78146342 1920.11952561 -501.14013672 1918.31103516 C-558.41465689 1887.4065625 -612.18232136 1847.72706392 -661.36865234 1805.22973633 C-663.61112465 1803.29229196 -665.86613996 1801.37143839 -668.13427734 1799.46411133 C-676.09175298 1792.7529051 -683.71544953 1785.74194554 -691.25537109 1778.56567383 C-694.22148362 1775.74361395 -697.22315855 1772.96461353 -700.24543762 1770.20281982 C-707.44909581 1763.60901896 -714.41766636 1756.80408129 -721.31054688 1749.88696289 C-723.1425748 1748.04951623 -724.9799709 1746.21755733 -726.81787109 1744.38598633 C-732.16672949 1739.03983202 -737.4846244 1733.71586933 -742.35742188 1727.92407227 C-743.91012941 1726.13261215 -745.55922859 1724.47522055 -747.25146484 1722.81567383 C-750.26560067 1719.8483206 -753.05063817 1716.7422209 -755.81005859 1713.53833008 C-758.03950546 1710.985905 -760.33147866 1708.49679869 -762.62646484 1706.00317383 C-766.6968654 1701.5404455 -770.55323394 1696.95309383 -774.34521484 1692.25317383 C-777.04926374 1688.95212713 -779.83290961 1685.72832265 -782.62646484 1682.50317383 C-788.03894491 1676.22876315 -793.19430025 1669.78641516 -798.26367188 1663.2331543 C-799.85458329 1661.18277388 -801.45646485 1659.14130477 -803.06005859 1657.10083008 C-822.94304016 1631.75730558 -841.40783909 1605.45865314 -858.75146484 1578.31567383 C-859.36876465 1577.35048828 -859.98606445 1576.38530273 -860.62207031 1575.39086914 C-875.35452584 1552.27767544 -888.9057797 1528.52325638 -901.75146484 1504.31567383 C-902.32300293 1503.24639648 -902.89454102 1502.17711914 -903.48339844 1501.07543945 C-927.39421348 1456.23200142 -947.29332942 1409.38057862 -963.75146484 1361.31567383 C-964.03570313 1360.48594055 -964.31994141 1359.65620728 -964.61279297 1358.80133057 C-973.79172564 1331.9278936 -981.83171413 1304.85649646 -988.75146484 1277.31567383 C-988.93839905 1276.57440247 -989.12533325 1275.8331311 -989.31793213 1275.06939697 C-1000.43937663 1230.86910109 -1008.36704684 1185.97604232 -1013.43896484 1140.69067383 C-1013.58427139 1139.42666245 -1013.58427139 1139.42666245 -1013.73251343 1138.13711548 C-1017.75294256 1102.74997806 -1019.26838191 1067.2542581 -1019.14257812 1031.65893555 C-1019.12548803 1026.78978381 -1019.13569081 1021.92112463 -1019.15289974 1017.05198956 C-1019.25827644 981.7718608 -1017.59860988 946.55391317 -1013.43896484 911.50317383 C-1013.28214737 910.14535294 -1013.28214737 910.14535294 -1013.12216187 908.76010132 C-1002.68426543 818.51427529 -981.08942939 729.2479306 -931.75146484 609.31567383 C-931.0829248 607.80287842 -931.0829248 607.80287842 -930.40087891 606.25952148 C-917.49293194 577.25220643 -903.43444128 548.40237859 -887.33349609 521.02661133 C-885.58090094 518.0233989 -883.86761238 514.99964049 -882.15771484 511.97192383 C-874.91711963 499.19573127 -867.30554349 486.76813431 -859.18896484 474.53051758 C-856.17949612 469.99233795 -853.2878649 465.39323374 -850.43896484 460.75317383 C-846.27228399 454.00643116 -841.75393066 447.57438636 -837.08740234 441.16674805 C-835.15998394 438.49611824 -833.27548467 435.79603595 -831.38720703 433.09765625 C-825.03169602 424.02349016 -818.45784058 415.13283983 -811.75146484 406.31567383 C-811.32655762 405.75428711 -810.90165039 405.19290039 -810.46386719 404.61450195 C-803.91331506 395.96351515 -797.11305828 387.53112676 -790.23974609 379.13598633 C-788.93737106 377.54305518 -787.64080452 375.94537863 -786.34521484 374.34692383 C-778.08665238 364.17333239 -769.55802521 354.23345998 -760.75146484 344.53051758 C-758.95542955 342.54154881 -757.19193181 340.53004188 -755.43896484 338.50317383 C-748.46018536 330.501922 -741.24668124 322.70428985 -733.66992188 315.26660156 C-731.87608162 313.44239979 -730.20781254 311.56648854 -728.54833984 309.62036133 C-724.653689 305.14107387 -720.52111921 300.93760729 -716.31396484 296.75317383 C-715.60175781 296.03709961 -714.88955078 295.32102539 -714.15576172 294.58325195 C-710.08230886 290.51719865 -705.9031464 286.64745143 -701.54418945 282.89013672 C-699.16831545 280.80352205 -696.95679608 278.58060862 -694.75146484 276.31567383 C-691.26105044 272.78812736 -687.70502171 269.44182909 -683.93505859 266.21801758 C-681.7436512 264.30886659 -679.60834757 262.34576066 -677.47827148 260.36865234 C-672.37088792 255.6306529 -667.1506074 251.1224552 -661.72021484 246.75317383 C-658.2286384 243.8864058 -654.83636938 240.91774065 -651.43896484 237.94067383 C-645.00913475 232.329171 -638.40963176 226.99807494 -631.65283203 221.78735352 C-629.60793993 220.20458393 -627.57362164 218.60887858 -625.54052734 217.01098633 C-583.35007936 183.90556365 -538.52217515 154.5228873 -491.75146484 128.31567383 C-490.8982666 127.83614258 -490.04506836 127.35661133 -489.16601562 126.86254883 C-415.13977629 85.46016427 -335.64887931 54.03351622 -92.56396484 4.06567383 C-91.79832214 3.98845093 -91.03267944 3.91122803 -90.24383545 3.83166504 C-84.41845668 3.25239444 -78.58812416 2.76616795 -72.75146484 2.31567383 C-71.64700012 2.22847076 -70.5425354 2.1412677 -69.40460205 2.05142212 C-46.27158578 0.28072228 -23.1937529 -0.02907224 0 0 Z M-13.22802734 16.3215332 C-59.58661746 16.37188906 -107.23572281 20.64974268 -152.93896484 28.31567383 C-153.88835938 28.4677832 -154.83775391 28.61989258 -155.81591797 28.77661133 C-162.51971918 29.87220911 -169.17006637 31.18550156 -175.8269043 32.53491211 C-179.77304812 33.32784872 -183.72898492 34.06033431 -187.68896484 34.78051758 C-188.68317192 34.96247177 -188.68317192 34.96247177 -189.69746399 35.14810181 C-192.38836614 35.64055049 -195.07926857 36.13272106 -197.77197266 36.61523438 C-206.39879466 38.16468172 -214.80555835 40.0419793 -223.26025391 42.37207031 C-229.08472326 43.94630626 -234.97595494 45.19922326 -240.87255859 46.4699707 C-245.96249225 47.5941503 -250.84775166 48.94896756 -255.77197266 50.65722656 C-258.29527807 51.49656483 -260.83262796 52.04515006 -263.43896484 52.56567383 C-271.33259748 54.32895056 -278.94972413 56.85780124 -286.63818359 59.35083008 C-293.15213687 61.45981674 -299.70112347 63.44826064 -306.25146484 65.44067383 C-315.18380563 68.17091934 -323.99488862 71.06259462 -332.75146484 74.31567383 C-335.04232753 75.13043792 -337.33402097 75.94286928 -339.62646484 76.75317383 C-355.34344067 82.35659126 -355.34344067 82.35659126 -370.66552734 88.94067383 C-373.7341901 90.30797673 -376.83067436 91.53625782 -379.96191406 92.75048828 C-417.62917919 107.41748909 -454.74913092 125.54990923 -489.57373047 146.03881836 C-492.20722729 147.58289777 -494.86231553 149.08633945 -497.52075195 150.58691406 C-505.35256189 155.01599095 -513.07802891 159.61879295 -520.75146484 164.31567383 C-521.4161377 164.72172852 -522.08081055 165.1277832 -522.765625 165.54614258 C-533.89745806 172.3803258 -544.74943702 179.61906511 -555.56396484 186.94067383 C-556.21333008 187.37980103 -556.86269531 187.81892822 -557.53173828 188.2713623 C-583.2194076 205.6612128 -607.93415023 224.22575176 -631.95166016 243.84790039 C-633.52456778 245.13063515 -635.10244768 246.40726796 -636.68115234 247.68286133 C-647.44940678 256.40610602 -657.89490851 265.51760735 -668.09130859 274.90161133 C-670.25234153 276.86272492 -672.43383351 278.78999639 -674.63427734 280.70629883 C-687.93528059 292.32353255 -700.38464449 304.84444878 -712.87646484 317.31567383 C-713.60646698 318.04308777 -714.33646912 318.77050171 -715.08859253 319.5199585 C-717.2109685 321.63640663 -719.32949804 323.7566282 -721.44677734 325.87817383 C-722.07859421 326.50801178 -722.71041107 327.13784973 -723.3613739 327.78677368 C-727.11789925 331.56256294 -730.6897726 335.4517185 -734.16345215 339.48954773 C-736.73491749 342.44658957 -739.43777903 345.27815864 -742.12646484 348.12817383 C-746.83299759 353.15256083 -751.28004548 358.30550774 -755.58349609 363.68286133 C-757.84178948 366.42536537 -760.20927818 369.02504973 -762.62646484 371.62817383 C-766.78953166 376.15630958 -770.61360791 380.85080654 -774.37084961 385.71264648 C-777.43787064 389.67259769 -780.5871404 393.54825624 -783.79956055 397.39111328 C-791.10846055 406.14015077 -797.97365274 415.15463482 -804.64282227 424.39892578 C-806.29484628 426.68406309 -807.95495779 428.96256069 -809.61987305 431.23828125 C-817.05552732 441.42969961 -824.20856275 451.77948029 -831.18139648 462.29248047 C-832.8130034 464.75172468 -834.45076147 467.20678415 -836.08935547 469.66137695 C-845.9285096 484.43232876 -855.61446414 499.32277231 -864.50146484 514.69067383 C-865.07888428 515.6879248 -865.65630371 516.68517578 -866.2512207 517.71264648 C-868.09331794 520.90877024 -869.92439746 524.11093675 -871.75146484 527.31567383 C-872.35941895 528.37915039 -872.96737305 529.44262695 -873.59375 530.53833008 C-897.13242232 571.90820926 -917.6013104 614.92482402 -934.75146484 659.31567383 C-935.15703613 660.36271484 -935.56260742 661.40975586 -935.98046875 662.48852539 C-960.69458604 726.57750153 -979.36464726 793.37847443 -989.75146484 861.31567383 C-990.0137085 863.00297607 -990.0137085 863.00297607 -990.28125 864.72436523 C-991.3237447 871.44928652 -992.31639492 878.17977996 -993.26757812 884.91821289 C-993.58661344 887.15822066 -993.91294646 889.39720289 -994.24707031 891.63500977 C-996.96891619 909.90988134 -998.57080782 928.20725579 -999.93896484 946.62817383 C-1000.06597778 948.32026474 -1000.06597778 948.32026474 -1000.19555664 950.04653931 C-1002.07757898 975.38725115 -1002.94265486 1000.65661302 -1002.87646484 1026.06567383 C-1002.87391693 1027.25053375 -1002.87136902 1028.43539368 -1002.8687439 1029.65615845 C-1002.85135109 1036.58553295 -1002.81894243 1043.51467877 -1002.77105713 1050.44390869 C-1002.75443605 1052.88016565 -1002.74149358 1055.31640331 -1002.72949219 1057.75268555 C-1002.2160709 1122.85276459 -993.34156467 1190.11663655 -977.49707031 1253.26782227 C-976.4552264 1257.52662363 -975.50700755 1261.80478194 -974.55200195 1266.08374023 C-971.74899407 1278.59574433 -968.42134651 1290.87944821 -964.70263672 1303.1484375 C-963.78725405 1306.19650202 -962.89295391 1309.24998524 -962.00260925 1312.30541992 C-947.25249098 1362.84255228 -928.28312515 1411.75278044 -905.75146484 1459.31567383 C-905.21054199 1460.46455078 -904.66961914 1461.61342773 -904.11230469 1462.79711914 C-891.58302794 1489.35904129 -877.77461063 1515.06844271 -862.75146484 1540.31567383 C-861.69928668 1542.09556569 -860.64720098 1543.87551221 -859.59521484 1545.65551758 C-853.23342943 1556.37903164 -846.61551593 1566.90730452 -839.75146484 1577.31567383 C-839.34750488 1577.9318457 -838.94354492 1578.54801758 -838.52734375 1579.18286133 C-831.17494333 1590.39339252 -823.5003325 1601.37647381 -815.75146484 1612.31567383 C-815.20055176 1613.09378418 -814.64963867 1613.87189453 -814.08203125 1614.67358398 C-802.39624514 1631.13209115 -789.96891322 1646.96787443 -777.17529297 1662.57592773 C-775.8992018 1664.1351571 -774.62959103 1665.69968482 -773.36083984 1667.26489258 C-764.86165382 1677.73601204 -756.08293803 1687.94842817 -746.96630859 1697.88598633 C-745.11139667 1699.92082798 -743.29717686 1701.9788863 -741.50146484 1704.06567383 C-729.84573538 1717.41333545 -717.30212751 1729.92548452 -704.76318359 1742.43432617 C-702.33952656 1744.85222996 -699.92046789 1747.27467732 -697.50265694 1749.69842529 C-695.15313729 1752.05245261 -692.79978864 1754.40263662 -690.44677734 1756.75317383 C-689.59141388 1757.61056152 -688.73605042 1758.46794922 -687.85476685 1759.35131836 C-683.51310386 1763.67619124 -679.10971024 1767.86185605 -674.45549011 1771.84976196 C-671.88448471 1774.06150576 -669.4205867 1776.37912116 -666.93896484 1778.69067383 C-662.23771299 1783.03892045 -657.3789715 1787.12838602 -652.38818359 1791.14379883 C-649.82726456 1793.25323732 -647.3802303 1795.44455031 -644.93896484 1797.69067383 C-640.48217161 1801.75193549 -635.82183516 1805.46980905 -631.06030273 1809.16113281 C-627.25988064 1812.11211517 -623.54745904 1815.14080918 -619.87646484 1818.25317383 C-613.42023076 1823.66890519 -606.70434091 1828.70091253 -599.92724609 1833.70629883 C-597.71794306 1835.34046912 -595.51559037 1836.98367867 -593.31396484 1838.62817383 C-575.57320477 1851.83961966 -557.45135545 1864.49838185 -538.75146484 1876.31567383 C-537.88005859 1876.8704541 -537.00865234 1877.42523437 -536.11083984 1877.99682617 C-513.52305614 1892.36767958 -490.36999057 1905.71435195 -466.75146484 1918.31567383 C-465.3423584 1919.0676001 -465.3423584 1919.0676001 -463.90478516 1919.8347168 C-450.35711089 1927.03805861 -436.65361221 1933.82564826 -422.75146484 1940.31567383 C-421.4608536 1940.92322304 -420.17046881 1941.53125367 -418.88037109 1942.13989258 C-415.85699239 1943.5605163 -412.82851502 1944.96918168 -409.79541016 1946.36889648 C-408.34777633 1947.03945596 -406.90199058 1947.7140118 -405.45751953 1948.39135742 C-345.13985638 1976.66152653 -279.99982323 1998.09999188 -214.81298828 2011.66235352 C-211.66048447 2012.33508878 -208.52265538 2013.05654479 -205.38427734 2013.79223633 C-187.91188088 2017.86329687 -170.32845136 2020.87253812 -152.62036133 2023.69238281 C-149.29755801 2024.22769655 -145.98167153 2024.79180531 -142.66552734 2025.36645508 C-135.4951421 2026.56487193 -128.28353376 2027.4159942 -121.06396484 2028.25317383 C-120.32881653 2028.33871521 -119.59366821 2028.42425659 -118.83624268 2028.51239014 C-103.1998742 2030.3229523 -87.55412795 2031.95188543 -71.85839844 2033.15423584 C-70.47578123 2033.26017508 -69.09328788 2033.36774604 -67.7109375 2033.47711182 C-42.61251776 2035.4514422 -17.47355512 2035.52481093 7.68727875 2035.56110001 C10.26819541 2035.56559915 12.84908585 2035.57330402 15.42999268 2035.58163452 C36.02753011 2035.6391077 56.44263089 2035.16742523 76.98471069 2033.56915283 C79.94861179 2033.33896683 82.91297397 2033.12435829 85.87866211 2032.91870117 C90.54539518 2032.593437 95.2097964 2032.24374472 99.87353516 2031.87817383 C100.66796021 2031.8163089 101.46238525 2031.75444397 102.28088379 2031.69070435 C112.99509191 2030.84708375 123.6209584 2029.80080457 134.23291016 2028.06176758 C137.88295004 2027.47572485 141.53759109 2027.06732909 145.21479797 2026.69052124 C156.51312972 2025.52175718 167.63804807 2023.65305406 178.81103516 2021.62817383 C179.78665405 2021.4530426 180.76227295 2021.27791138 181.76745605 2021.09747314 C213.12124605 2015.46226322 244.56429377 2009.27650165 275.05859375 1999.97192383 C280.10049203 1998.4610406 285.1739091 1997.0552134 290.24169922 1995.6340332 C362.07089535 1975.29150059 432.92886111 1946.0783768 497.609375 1908.81665039 C500.92428611 1906.9313522 504.27619621 1905.12059738 507.6340332 1903.31323242 C538.44222283 1886.68344211 567.95211073 1866.91157467 596.24853516 1846.31567383 C596.98604004 1845.78103516 597.72354492 1845.24639648 598.48339844 1844.69555664 C619.84684954 1829.18177958 640.56487907 1812.84828881 660.63330078 1795.69262695 C662.29688059 1794.27446037 663.96749392 1792.86492066 665.63916016 1791.45629883 C672.62625226 1785.54656364 679.40044538 1779.45473953 686.06005859 1773.17797852 C689.11251527 1770.30177918 692.17498479 1767.46790985 695.37353516 1764.75317383 C699.63392664 1761.09742306 703.51847133 1757.07082666 707.46289062 1753.08203125 C710.96883517 1749.55106613 714.56654774 1746.21294731 718.35400391 1742.98364258 C723.43511262 1738.5101716 728.16394744 1733.64733956 732.56103516 1728.50317383 C735.62356533 1724.92665257 738.90157704 1721.62205342 742.24853516 1718.31567383 C746.13226935 1714.47415414 749.87408317 1710.59194587 753.41650391 1706.42895508 C755.29774399 1704.25891055 757.23840728 1702.15041032 759.19213867 1700.0456543 C764.02880493 1694.833637 768.61714425 1689.49515969 773.07666016 1683.95239258 C775.18609865 1681.39147355 777.37741164 1678.94443928 779.62353516 1676.50317383 C783.60537102 1672.12866557 787.26595599 1667.57038308 790.88745117 1662.89916992 C793.84898999 1659.08252815 796.86813345 1655.32355666 799.94091797 1651.59594727 C807.15101993 1642.83865043 813.91796317 1633.80056886 820.57373047 1624.61694336 C822.0955123 1622.52593527 823.63304194 1620.44800739 825.17822266 1618.37426758 C842.03432284 1595.60102097 857.766992 1571.66220829 872.24853516 1547.31567383 C873.08553955 1545.91115967 873.08553955 1545.91115967 873.93945312 1544.47827148 C886.26364755 1523.72762539 897.77036264 1502.55946162 908.81347656 1481.10229492 C909.73421102 1479.31439715 910.65809046 1477.52811347 911.5859375 1475.74389648 C936.66805427 1427.43655021 955.59515694 1376.04648257 972.24853516 1324.31567383 C972.55920929 1323.35201904 972.55920929 1323.35201904 972.87615967 1322.36889648 C988.2675439 1274.48528764 998.34631969 1225.16237757 1005.90979004 1175.496521 C1006.25047998 1173.303153 1006.60977125 1171.11346111 1006.97216797 1168.92358398 C1009.30998594 1154.50814144 1010.66336694 1140.00059242 1011.98339844 1125.46411133 C1012.24130049 1122.62532456 1012.50495039 1119.78717547 1012.77441406 1116.94946289 C1015.63151645 1086.85441925 1016.45861448 1056.90890438 1016.43603516 1026.69067383 C1016.43576828 1025.88811787 1016.4355014 1025.0855619 1016.43522644 1024.25868607 C1016.41914768 985.66791292 1014.58456684 947.67374576 1010.24853516 909.31567383 C1010.16861328 908.60042542 1010.08869141 907.885177 1010.00634766 907.14825439 C1005.59229608 867.67812709 998.76988529 828.71686893 989.203125 790.16918945 C988.38508668 786.86690894 987.57509113 783.56285944 986.7689209 780.25767517 C982.67340581 763.48345652 978.28739064 746.83603645 973.24853516 730.31567383 C972.91474854 729.21280029 972.91474854 729.21280029 972.57421875 728.08764648 C970.05601752 719.78719987 967.35542346 711.54784984 964.62353516 703.31567383 C964.33414062 702.44273682 964.04474609 701.5697998 963.74658203 700.67041016 C962.25866577 696.21820554 960.71319961 691.79927493 959.04394531 687.41186523 C958.13814643 685.0247599 957.25560989 682.629614 956.37353516 680.23364258 C936.27910106 625.91907847 912.43808469 572.44415593 882.66162109 522.69702148 C880.82318761 519.59887356 879.0666503 516.46146491 877.31103516 513.31567383 C861.95373172 486.41614444 844.45232935 460.36931817 826.24853516 435.31567383 C825.69504395 434.55254883 825.14155273 433.78942383 824.57128906 433.00317383 C813.41277073 417.65367713 801.7204324 402.80852606 789.71630859 388.11547852 C788.43357383 386.54257089 787.15694103 384.96469099 785.88134766 383.38598633 C777.15810296 372.61773189 768.04660164 362.17223017 758.66259766 351.97583008 C756.7547765 349.8735223 754.88281167 347.75133527 753.02172852 345.6081543 C741.94408408 332.93929815 730.08670883 320.9912807 718.17553711 309.11230469 C715.78527409 306.72747128 713.40049758 304.33724277 711.01611328 301.9465332 C709.47021034 300.40129011 707.92399773 298.85635674 706.37744141 297.31176758 C705.67833145 296.61063339 704.9792215 295.90949921 704.25892639 295.18711853 C700.31410314 291.26080683 696.27283969 287.50606467 692.050354 283.87937927 C689.09939059 281.31839066 686.27770727 278.6214656 683.43603516 275.94067383 C678.39287697 271.21694273 673.2216254 266.74733092 667.82666016 262.42504883 C665.22427226 260.29582237 662.73278014 258.08118026 660.24853516 255.81567383 C655.07312288 251.11149218 649.6978012 246.69755786 644.24853516 242.31567383 C643.09217924 241.37830448 641.93593436 240.44079813 640.77978516 239.50317383 C632.45723125 232.77578532 623.98869127 226.270437 615.38916016 219.90161133 C613.16232638 218.25180382 610.93983501 216.59624668 608.71728516 214.94067383 C597.37738705 206.51505851 585.90169076 198.30260003 574.24853516 190.31567383 C572.72462158 189.2710498 572.72462158 189.2710498 571.16992188 188.20532227 C555.54031061 177.53730529 539.63476635 167.54290733 523.2578125 158.05981445 C520.55682313 156.4943538 517.86389296 154.91625675 515.17431641 153.33129883 C503.62575598 146.54808475 491.87876695 140.14448646 480.0703125 133.82641602 C477.54977707 132.47695476 475.03358479 131.11976494 472.51806641 129.76098633 C452.90285004 119.23026121 432.7664012 109.73307756 412.37353516 100.81567383 C411.72188385 100.5303479 411.07023254 100.24502197 410.39883423 99.9510498 C401.0873386 95.88393602 391.69481197 92.05844344 382.24853516 88.31567383 C380.66438097 87.67185657 379.08082291 87.02656462 377.49853516 86.37817383 C370.99913953 83.77403888 364.40882784 81.40592692 357.83447266 78.99926758 C352.94945339 77.20964044 348.07395528 75.39572221 343.21435547 73.53808594 C331.06265177 68.89409568 318.78919682 64.94456878 306.32128906 61.24243164 C303.16694745 60.29106657 300.02548942 59.30474632 296.88525391 58.30786133 C283.13540181 53.95615738 269.36087799 50.24481168 255.3046875 47.0246582 C252.33866947 46.33658372 249.38087547 45.62135255 246.42431641 44.89379883 C234.39993659 41.93832497 222.33559379 39.18479915 210.23815918 36.54632568 C208.59535251 36.18792077 206.95284804 35.82812744 205.31066895 35.46685791 C195.30069719 33.19104039 195.30069719 33.19104039 185.15478516 31.71020508 C181.83972271 31.37538377 178.90812694 30.71201355 175.70410156 29.85522461 C169.70657048 28.53741355 163.52852787 27.99019708 157.43603516 27.25317383 C155.30914985 26.99378582 153.18248069 26.73292979 151.05622864 26.46839905 C149.14053676 26.23032496 147.22421354 25.99734745 145.30786133 25.76464844 C142.24853516 25.31567383 142.24853516 25.31567383 139.24853516 24.31567383 C137.91648689 24.12733203 136.57895086 23.9761371 135.23950195 23.85083008 C134.43824387 23.77405029 133.63698578 23.69727051 132.81144714 23.61816406 C131.94892838 23.53896729 131.08640961 23.45977051 130.19775391 23.37817383 C129.30619095 23.29317627 128.41462799 23.20817871 127.49604797 23.12060547 C124.64301398 22.84896664 121.78957253 22.58196873 118.93603516 22.31567383 C116.09325979 22.0489003 113.25059609 21.78107975 110.40815735 21.51074219 C108.63979955 21.34269598 106.87124102 21.17674501 105.10246277 21.01318359 C100.7770253 20.60353737 96.5339905 20.04366299 92.24853516 19.31567383 C90.69071081 19.19219357 89.13030362 19.09702859 87.56884766 19.03442383 C86.72193359 18.99704102 85.87501953 18.9596582 85.00244141 18.92114258 C84.13490234 18.88633789 83.26736328 18.8515332 82.37353516 18.81567383 C80.64684773 18.74577794 78.92027835 18.67289726 77.19384766 18.59692383 C76.43604004 18.56663086 75.67823242 18.53633789 74.89746094 18.50512695 C72.78040673 18.35371368 70.67012151 18.1087065 68.56567383 17.83276367 C63.79627045 17.21873535 59.03118821 16.96979229 54.22900391 16.76098633 C52.79611275 16.69791794 52.79611275 16.69791794 51.33427429 16.63357544 C40.4106493 16.19051318 29.49208586 16.15844238 18.56103516 16.19067383 C17.48050873 16.19355408 16.3999823 16.19643433 15.28671265 16.19940186 C8.63472347 16.21992013 1.98293344 16.25657947 -4.66894531 16.29931641 C-7.52202685 16.31445631 -10.37491069 16.32022563 -13.22802734 16.3215332 Z " fill="#FDFDFE" transform="translate(1018.75146484375,-0.315673828125)"/>
<path d="M0 0 C2.30560999 0.01066514 4.61042994 0.00006986 6.91601562 -0.01269531 C14.57797829 -0.02039603 22.12928836 0.27572409 29.74414062 1.15527344 C30.42160339 1.23328186 31.09906616 1.31129028 31.79705811 1.3916626 C38.62601731 2.26423416 45.03551944 4.13483498 51.57226562 6.26074219 C52.32121094 6.48503906 53.07015625 6.70933594 53.84179688 6.94042969 C98.964178 20.91715195 134.791861 52.07049598 156.75561523 93.58032227 C164.29798236 108.27169043 169.35267239 124.08657264 172.57226562 140.26074219 C172.77980469 141.28296875 172.98734375 142.30519531 173.20117188 143.35839844 C178.24573885 173.51997023 174.16213551 205.09681986 162.57226562 233.26074219 C162.2588623 234.03595215 161.94545898 234.81116211 161.62255859 235.60986328 C143.4636528 280.04240706 108.632285 310.92156691 65.25976562 330.19824219 C45.28738822 337.95086776 25.10188605 340.52236964 3.82226562 340.57324219 C3.08726837 340.57691803 2.35227112 340.58059387 1.59500122 340.5843811 C-12.73416592 340.62177945 -26.65752538 339.49006808 -40.49023438 335.51074219 C-41.42649658 335.24616211 -42.36275879 334.98158203 -43.32739258 334.70898438 C-70.27402338 326.90480684 -94.38472155 312.86020287 -114.42773438 293.26074219 C-115.42017192 292.32863121 -116.41367766 291.39765636 -117.40820312 290.46777344 C-141.1645426 267.918276 -159.87655228 234.17311968 -164.10351562 201.44824219 C-164.31754594 199.22174687 -164.31754594 199.22174687 -165.42773438 197.26074219 C-171.57124523 151.1819902 -160.98619114 104.99201751 -133.09179688 67.63574219 C-129.03112387 62.38325104 -124.52728477 57.54965853 -119.90820312 52.78808594 C-118.48618757 51.32104615 -117.08140147 49.83906229 -115.67773438 48.35449219 C-95.38716132 27.35610844 -68.67464369 12.35883269 -40.42773438 5.26074219 C-39.35136719 4.96683594 -38.275 4.67292969 -37.16601562 4.37011719 C-24.79127108 1.07018531 -12.74954949 -0.0698164 0 0 Z " fill="#FEFEFE" transform="translate(734.427734375,398.7392578125)"/>
<path d="M0 0 C2.63519221 -0.0043481 5.26866928 -0.04072236 7.90356445 -0.07861328 C24.21175826 -0.18805276 39.81760141 2.43591623 55.16333008 8.05810547 C56.11457764 8.39914307 57.0658252 8.74018066 58.04589844 9.09155273 C88.31619946 20.20739446 115.94922897 38.51323558 135.60083008 64.37060547 C136.34848633 65.31419922 137.09614258 66.25779297 137.86645508 67.22998047 C143.55121337 74.53895541 148.24963288 82.22040431 152.60083008 90.37060547 C153.10960693 91.30646484 153.10960693 91.30646484 153.62866211 92.26123047 C159.21528201 102.59923514 163.27175167 113.10927849 166.60083008 124.37060547 C166.91922852 125.44052734 167.23762695 126.51044922 167.56567383 127.61279297 C171.17770544 140.87487917 171.93744277 154.4112261 171.86157227 168.07958984 C171.85083492 170.36957244 171.86155645 172.65877104 171.87426758 174.94873047 C171.88886658 189.893906 170.37767727 204.11721804 165.60083008 218.37060547 C165.3352832 219.17771973 165.06973633 219.98483398 164.79614258 220.81640625 C156.7341351 245.0336422 145.21434897 266.74675088 127.60083008 285.37060547 C126.44997147 286.72050393 125.30391077 288.07451168 124.16333008 289.43310547 C111.86578949 303.43941594 96.04036304 313.86966345 79.60083008 322.37060547 C78.68116455 322.84989502 78.68116455 322.84989502 77.74291992 323.33886719 C63.21836921 330.80205964 47.62494185 335.41119744 31.60083008 338.37060547 C30.87371826 338.53979492 30.14660645 338.70898438 29.39746094 338.88330078 C21.14789792 340.66161187 13.01956525 340.67494052 4.62207031 340.63134766 C2.17137832 340.62064063 -0.27857842 340.63128801 -2.72924805 340.64404297 C-10.6010027 340.6505648 -18.14231179 340.40625067 -25.89575195 338.86645508 C-28.53513996 338.34367401 -31.16610575 338.00524953 -33.83666992 337.68310547 C-71.75689814 331.21494154 -109.31223249 306.85193567 -132.39916992 276.37060547 C-133.25505273 275.29958272 -134.11186842 274.22930498 -134.96948242 273.15966797 C-149.7403747 254.33813539 -160.82261644 230.91539003 -165.39916992 207.37060547 C-165.53307129 206.74895508 -165.66697266 206.12730469 -165.80493164 205.48681641 C-168.3135505 193.57299322 -168.69320137 181.74769842 -168.71166992 169.62060547 C-168.71691177 168.51892532 -168.71691177 168.51892532 -168.72225952 167.39498901 C-168.75933307 153.339407 -167.82532568 139.51795131 -163.71166992 125.99560547 C-163.44966797 125.11477295 -163.18766602 124.23394043 -162.91772461 123.32641602 C-156.2754509 101.50376293 -146.57625902 82.28035835 -132.39916992 64.37060547 C-131.95992187 63.81034668 -131.52067383 63.25008789 -131.06811523 62.67285156 C-103.99947128 28.45078169 -64.16138279 6.8849195 -21.1003418 0.73242188 C-14.07730111 0.04586869 -7.05210342 -0.00129503 0 0 Z " fill="#FEFEFE" transform="translate(1311.399169921875,398.62939453125)"/>
<path d="M0 0 C14.22180187 10.77291804 22.57794135 26.03204992 25.25 43.5625 C31.00912851 77.90970091 46.744351 112.18934465 66 141 C66.5480127 141.82081055 67.09602539 142.64162109 67.66064453 143.48730469 C74.42758441 153.53856175 81.46033082 163.16179489 89.4921875 172.23730469 C91.44218974 174.51693813 93.3001781 176.86583525 95.17578125 179.20703125 C99.92008818 185.02344237 105.04742725 190.34443524 110.375 195.625 C111.67824219 196.93984375 111.67824219 196.93984375 113.0078125 198.28125 C118.28183925 203.53967312 123.74578572 208.38302797 129.55761719 213.0390625 C131.48489628 214.58643412 133.3647564 216.15563522 135.21484375 217.79296875 C150.3970952 231.1455084 167.47045275 242.01025067 185 252 C185.9173291 252.5244873 186.8346582 253.04897461 187.77978516 253.58935547 C227.76260261 276.27604361 271.29755664 291.63677675 316 302 C317.36970947 302.32411865 317.36970947 302.32411865 318.76708984 302.65478516 C338.07603142 307.19948 357.66237593 310.29051636 377.30078125 313.02734375 C392.43887468 315.16179363 405.61572453 317.39071959 418 327 C418.73734375 327.55042969 419.4746875 328.10085938 420.234375 328.66796875 C431.14398755 337.48970717 438.87816617 351.1309225 441 365 C442.51599481 385.44474367 438.12209779 401.12220387 425.25 417.18359375 C415.15778904 428.07638875 398.95699742 435.32568276 384.1730957 436.15942383 C373.79944167 436.31150732 363.8556264 434.95262162 353.625 433.375 C352.72617096 433.23895355 351.82734192 433.1029071 350.90127563 432.96273804 C344.59550063 432.0078697 338.29612124 431.01647999 332 430 C330.89606903 429.82244171 330.89606903 429.82244171 329.76983643 429.64129639 C271.55772453 420.21547053 214.05166038 402.81258764 161 377 C160.2363916 376.63068359 159.4727832 376.26136719 158.68603516 375.88085938 C154.77596469 373.98253786 150.89474268 372.03472794 147.03173828 370.04248047 C144.78710454 368.8907638 142.53213715 367.76059478 140.27734375 366.62890625 C119.52132166 356.10208146 99.71620281 343.82838176 81 330 C80.33887207 329.51611816 79.67774414 329.03223633 78.99658203 328.53369141 C65.3956896 318.56845369 52.14647658 308.17566479 39.84375 296.6328125 C37.68873388 294.63764647 35.51155703 292.71291259 33.28515625 290.80078125 C28.28260195 286.44200313 23.61682915 281.76298663 18.9375 277.0625 C17.64875977 275.77956055 17.64875977 275.77956055 16.33398438 274.47070312 C11.34704025 269.47613953 6.57430091 264.37376413 2 259 C1.11115508 257.97875045 0.22186415 256.95788883 -0.66796875 255.9375 C-7.84263687 247.57261562 -14.52186259 238.91337855 -21 230 C-21.54527344 229.25395508 -22.09054687 228.50791016 -22.65234375 227.73925781 C-32.6429771 214.00502109 -41.53016187 199.71511234 -50 185 C-50.56605957 184.02047363 -51.13211914 183.04094727 -51.71533203 182.03173828 C-70.96439021 148.44334648 -86.01981084 110.93670305 -94 73 C-94.17354004 72.19272461 -94.34708008 71.38544922 -94.52587891 70.55371094 C-98.50635748 51.66317068 -98.00362599 34.11204168 -88.10546875 17.1015625 C-78.75644192 3.32952668 -65.65647977 -6.65535728 -49.30395508 -10.59204102 C-31.31024801 -13.77816844 -14.9333557 -10.19274904 0 0 Z " fill="#FEFEFE" transform="translate(635,831)"/>
<path d="M0 0 C14.6086649 10.97582231 24.03297215 26.11142135 33.21484375 41.6640625 C33.85679687 42.74945312 34.49875 43.83484375 35.16015625 44.953125 C40.0136861 53.62449424 43.9861326 62.69283995 47.96484375 71.7890625 C48.38571762 72.74440887 48.38571762 72.74440887 48.81509399 73.71905518 C52.54524665 82.21625077 55.63096677 90.74874276 58.21484375 99.6640625 C58.7067709 101.18752622 59.20501375 102.70899623 59.71484375 104.2265625 C59.95460938 104.94199219 60.194375 105.65742187 60.44140625 106.39453125 C60.98999964 108.00429266 61.54829133 109.61076367 62.11328125 111.21484375 C65.34563534 120.56281176 67.85426417 130.06533106 70.21484375 139.6640625 C70.52639404 140.92162354 70.52639404 140.92162354 70.84423828 142.20458984 C75.29326624 160.477259 77.80073272 179.03548924 80.21484375 197.6640625 C80.33988281 198.62828125 80.46492188 199.5925 80.59375 200.5859375 C81.16149926 205.09918478 81.62900953 209.61223245 82.00439453 214.14550781 C82.15455585 215.94256595 82.31558239 217.73872988 82.48388672 219.53417969 C84.22993518 238.54932466 84.40326926 257.51714995 84.40234375 276.6015625 C84.40325012 277.8091925 84.40415649 279.01682251 84.40509033 280.26104736 C84.40310034 303.71547337 83.59944904 326.99799692 81.40234375 350.3515625 C81.27070831 351.77314667 81.27070831 351.77314667 81.13641357 353.22344971 C79.74504308 368.17654061 78.07297641 383.04702177 75.79199219 397.89404297 C75.38046301 400.58221287 74.97681987 403.27067543 74.58300781 405.96142578 C71.26343096 428.61817154 67.06550949 450.97955129 62.15673828 473.34375 C61.2857958 477.32066033 60.4466778 481.30329578 59.6171875 485.2890625 C54.52584976 509.69866791 48.51324122 533.81832494 41.21484375 557.6640625 C40.83030029 558.94458496 40.83030029 558.94458496 40.43798828 560.25097656 C34.63967986 579.43783189 26.35322826 593.55721441 8.53125 603.97265625 C-5.51239674 611.1350815 -21.87967181 613.30713285 -37.03515625 608.6015625 C-53.97565631 602.93829602 -66.61779489 592.53454385 -74.78515625 576.6640625 C-83.97313766 556.16819694 -80.99649862 539.040455 -74.83520508 518.23852539 C-70.88132919 504.77916782 -67.30807743 491.22644027 -63.97265625 477.6015625 C-63.7599408 476.73354004 -63.54722534 475.86551758 -63.32806396 474.97119141 C-56.6915605 447.74666152 -51.3438159 420.20773079 -47.22070312 392.49072266 C-46.78135603 389.63939942 -46.29671798 386.79901888 -45.80078125 383.95703125 C-43.35631208 369.62296505 -41.88171544 355.26590925 -40.59765625 340.7890625 C-40.51298096 339.84196411 -40.42830566 338.89486572 -40.34106445 337.91906738 C-38.51988431 317.34115878 -37.52602114 296.82386937 -37.47265625 276.1640625 C-37.46970551 275.14212799 -37.46675476 274.12019348 -37.4637146 273.06729126 C-37.45369709 257.58634848 -38.14787903 242.26386904 -39.59765625 226.8515625 C-39.68042816 225.96355957 -39.76320007 225.07555664 -39.84848022 224.16064453 C-41.4615011 207.26499441 -43.90506159 190.53601691 -47.66015625 173.9765625 C-47.92062744 172.8201123 -48.18109863 171.66366211 -48.44946289 170.47216797 C-50.30383555 162.40205577 -52.42140024 154.53530078 -55.10351562 146.70166016 C-55.87295923 144.401597 -56.58752373 142.0876182 -57.30078125 139.76953125 C-62.93380212 121.75327242 -70.33630293 104.11110966 -81.81640625 88.98828125 C-86.69813777 82.54913165 -90.14583349 76.31605251 -92.78515625 68.6640625 C-93.15125 67.62121094 -93.51734375 66.57835937 -93.89453125 65.50390625 C-96.74360387 53.22040456 -96.37020792 38.04295281 -90.78515625 26.6640625 C-90.36105469 25.73851562 -89.93695312 24.81296875 -89.5 23.859375 C-82.89905416 10.58393518 -70.80853337 -1.54876499 -56.6015625 -6.4296875 C-53.3408304 -7.4475303 -50.07580132 -8.41971868 -46.78515625 -9.3359375 C-46.15222656 -9.52929688 -45.51929688 -9.72265625 -44.8671875 -9.921875 C-29.50948111 -12.97612805 -12.89905318 -8.59936879 0 0 Z " fill="#FEFEFE" transform="translate(1492.78515625,827.3359375)"/>
<path d="M0 0 C0.92039062 0.29003906 1.84078125 0.58007812 2.7890625 0.87890625 C34.32704893 11.49521436 51.42078631 40.01922377 65.625 68.22705078 C67.37150353 71.74734697 69.09732173 75.27684039 70.8125 78.8125 C71.35173096 79.92077148 71.89096191 81.02904297 72.4465332 82.17089844 C76.0262893 89.64932728 79.14741514 97.2167136 82 105 C82.37471436 106.01908447 82.74942871 107.03816895 83.13549805 108.08813477 C88.61900435 123.19821423 93.26579176 138.3670131 97 154 C97.29390625 155.22847656 97.5878125 156.45695313 97.890625 157.72265625 C98.36749955 159.76966564 98.83424641 161.81907057 99.2890625 163.87109375 C99.81442555 166.18326851 100.37749206 168.48695045 100.9609375 170.78515625 C103.72319936 181.73485117 105.33992021 192.70050033 106.67456055 203.90966797 C106.96958064 206.18628052 106.96958064 206.18628052 108 209 C116.29952616 263.36388191 115.11437185 320.43802332 110 375 C109.92738953 375.78280334 109.85477905 376.56560669 109.77996826 377.37213135 C108.79943784 387.85208227 107.62455206 398.30122553 106.28851318 408.74163818 C105.99784124 411.01689789 105.71303289 413.29284767 105.42822266 415.56884766 C100.06822555 457.89667519 91.25377682 499.78139939 81.0625 541.1875 C80.79363983 542.27994019 80.52477966 543.37238037 80.24777222 544.4979248 C77.43122014 555.8791871 74.47077446 567.19503573 71.06982422 578.41650391 C70.00251451 581.99157738 69.02310103 585.58247973 68.0625 589.1875 C61.79253429 610.90845265 49.44095065 627.77857041 29.79199219 639.03808594 C25.053161 641.58181821 20.11258349 643.37239851 15 645 C14.06027344 645.31839844 13.12054687 645.63679688 12.15234375 645.96484375 C-7.04447399 651.69484299 -26.30154574 647.28894418 -43.49609375 638.015625 C-47.63641381 635.68607803 -51.38595128 633.08307473 -55 630 C-55.56460937 629.5771875 -56.12921875 629.154375 -56.7109375 628.71875 C-70.14108266 618.26632933 -78.78568431 600.22351903 -81.5546875 583.6875 C-84.24500142 561.40981283 -76.86528279 540.70294128 -70.71484375 519.5859375 C-63.52357618 494.65319472 -58.23548225 469.24421729 -53.67163086 443.71704102 C-52.96260737 439.79305607 -52.22570526 435.87499963 -51.484375 431.95703125 C-46.73890718 406.75769903 -43.34603668 381.52802348 -41 356 C-40.87995605 354.71206543 -40.75991211 353.42413086 -40.63623047 352.09716797 C-35.02993696 288.87388482 -37.64564328 221.34075109 -59 161 C-59.35843994 159.96842773 -59.35843994 159.96842773 -59.72412109 158.91601562 C-64.70535804 144.82412785 -71.57125537 131.10912988 -80.6875 119.25 C-94.78852099 100.89234556 -98.09143785 80.67361824 -95.30810547 58.00756836 C-92.39225592 39.00833634 -79.81980704 22.23421387 -64.83984375 10.875 C-45.42499701 -1.94360583 -22.57184137 -7.53472642 0 0 Z M-62 28 C-62.60328125 28.49757813 -63.2065625 28.99515625 -63.828125 29.5078125 C-69.81292259 34.87256349 -73.45925164 41.89844238 -77 49 C-77.46019531 49.91265625 -77.92039062 50.8253125 -78.39453125 51.765625 C-83.92391242 65.12992436 -82.712058 82.5631301 -77.48828125 95.8359375 C-74.62790808 101.91704581 -71.33378748 107.34478307 -67.1875 112.625 C-40.91092748 147.04457286 -31.77841827 196.03520331 -27 238 C-26.86174805 239.19173828 -26.72349609 240.38347656 -26.58105469 241.61132812 C-22.37896215 279.23096466 -22.91334426 317.30709439 -26 355 C-26.05327454 355.66134949 -26.10654907 356.32269897 -26.16143799 357.00408936 C-27.57090191 374.43244012 -29.64197335 391.69310097 -32.50146484 408.94384766 C-32.97874663 411.86971121 -33.42655496 414.79830755 -33.86328125 417.73046875 C-38.31311037 447.31080808 -44.44279486 476.51778649 -51.5625 505.5625 C-51.8297287 506.65727661 -52.0969574 507.75205322 -52.37228394 508.88000488 C-55.74592516 522.64689442 -59.44643679 536.28066823 -63.49975586 549.86303711 C-68.78156206 567.72604421 -68.38250705 583.44491828 -60.390625 600.41796875 C-52.03598126 615.536808 -39.47898069 625.71153279 -23 631 C-21.205625 631.61875 -21.205625 631.61875 -19.375 632.25 C-8.7078007 634.64688081 2.74252421 633.3898096 13 630 C13.84949219 629.73316406 14.69898438 629.46632813 15.57421875 629.19140625 C30.40550665 623.95272528 42.31410216 612.22991055 49.04736328 598.20703125 C52.09893681 591.13726583 54.05444876 583.6451987 56.10253906 576.23828125 C57.01265615 572.9543332 57.95327146 569.68026678 58.8984375 566.40625 C69.04673969 530.86698666 77.14356208 494.62158647 83.44189453 458.20800781 C83.9626809 455.21451137 84.49637477 452.2234899 85.03140259 449.23251343 C93.83448703 399.77373601 98.22482873 349.98289433 98.25 299.75 C98.25067474 298.52064728 98.25134949 297.29129456 98.25204468 296.02468872 C98.22336913 262.77579752 96.44716543 229.98408004 90.57470703 197.22875977 C90.02580705 194.14498651 89.51820494 191.05707718 89.01953125 187.96484375 C86.0633957 170.16911393 81.95786846 152.579066 76.70629883 135.32470703 C76.20405654 133.67163029 75.70995128 132.01607181 75.22143555 130.35888672 C74.96273682 129.48248535 74.70403809 128.60608398 74.4375 127.703125 C74.20546875 126.91325195 73.9734375 126.12337891 73.734375 125.30957031 C72.70748564 122.0800579 71.43509903 118.97367228 70.140625 115.84375 C69.0755227 113.18828947 68.10195326 110.51008395 67.1394043 107.81616211 C57.81240673 82.02174206 45.30677189 57.34843476 28 36 C26.92105469 34.64455078 26.92105469 34.64455078 25.8203125 33.26171875 C18.18666045 24.1411907 9.06361017 19.04332741 -2 15 C-2.78761719 14.67902344 -3.57523438 14.35804688 -4.38671875 14.02734375 C-24.4010278 6.72161124 -46.65401613 14.61687453 -62 28 Z " fill="#186DB6" transform="translate(1479,805)"/>
</svg>
